<svg width="120" height="120" viewBox="0 0 120 120" fill="none" xmlns="http://www.w3.org/2000/svg">
<path d="M56.4207 0V26.6667L77.8902 0H56.4207Z" fill="#50B848"/>
<path d="M93.19 3.68799L56.4207 49.3934V60.7724C56.4207 60.4572 56.4207 60.142 56.5765 59.8268L57.0439 57.8095C57.8734 54.9071 59.2025 52.1754 60.9701 49.7401L62.2165 48.2271C63.5918 46.7906 65.1538 45.55 66.8594 44.5391C67.7689 44.0634 68.7054 43.6424 69.6639 43.2783C71.683 42.6623 73.7883 42.3855 75.896 42.4588L78.0149 42.7424C79.6849 43.1277 81.298 43.7317 82.8136 44.5391C83.6666 45.0455 84.4886 45.6034 85.2752 46.2098C87.5386 48.1275 89.4118 50.472 90.7906 53.1128L91.632 54.9411C92.2827 56.8716 92.7726 58.8538 93.0965 60.867L93.19 3.68799Z" fill="#50B848"/>
<path d="M74.8987 46.5879C66.8593 46.5879 60.3156 54.9094 60.3156 65.1222C60.3156 75.335 66.8593 83.688 74.8987 83.688C82.938 83.688 89.5129 75.3665 89.5129 65.1222C89.5129 54.8779 82.9692 46.5879 74.8987 46.5879V46.5879ZM74.8987 77.699C70.0688 77.699 66.1114 72.0568 66.1114 65.0907C66.1114 58.1246 70.0377 52.4823 74.8987 52.4823C79.7597 52.4823 83.7171 58.1246 83.7171 65.0907C83.7171 72.0568 79.7597 77.699 74.8987 77.699Z" fill="#50B848"/>
<path d="M57.0739 72.4984L56.6065 70.481L56.4507 69.5354V91.8207H93.2199V69.756C92.7629 72.3643 91.9884 74.9053 90.9141 77.3211L89.9169 79.0547C88.4981 81.2859 86.693 83.2399 84.5885 84.823L82.9059 85.8948C81.3899 86.7012 79.7768 87.3052 78.1072 87.6915C77.0773 87.8719 76.0359 87.9772 74.9911 88.0067C73.5731 87.9678 72.163 87.7776 70.7845 87.4393C69.7979 87.1419 68.8301 86.784 67.8865 86.3676C65.7696 85.2357 63.8616 83.7428 62.2465 81.9546L60.9689 80.4416C59.2225 78.044 57.9043 75.3557 57.0739 72.4984V72.4984Z" fill="#50B848"/>
<path d="M7 88.2582L43.7693 42.5528V31.0162C43.7693 31.3314 43.7693 31.6466 43.7693 31.9618L43.2707 33.9791C42.437 36.8799 41.1082 39.6108 39.3445 42.0485L38.0669 43.5615C36.6733 45.0254 35.078 46.2782 33.3305 47.281C32.4238 47.7625 31.487 48.1837 30.5261 48.5418C28.5081 49.1629 26.4019 49.4399 24.294 49.3614L22.1751 49.0777C20.4727 48.7014 18.8274 48.0972 17.2829 47.281C16.419 46.7761 15.5865 46.2182 14.7901 45.6104C12.5385 43.6891 10.6762 41.3449 9.30587 38.7073L8.46454 36.8791C7.81562 34.948 7.32577 32.9659 7 30.9531L7 88.2582Z" fill="#50B848"/>
<path d="M25.2936 45.2012C33.333 45.2012 39.8767 36.8797 39.8767 26.6669C39.8767 16.4541 33.3642 8.10107 25.2936 8.10107C17.2231 8.10107 10.7106 16.4226 10.7106 26.6669C10.7106 36.9112 17.2543 45.2012 25.2936 45.2012V45.2012ZM25.2936 14.0901C30.1547 14.0901 34.0809 19.7323 34.0809 26.6984C34.0809 33.6646 30.1235 39.3068 25.2936 39.3068C20.4638 39.3068 16.5064 33.6646 16.5064 26.6984C16.5064 19.7323 20.4638 14.0901 25.2936 14.0901V14.0901Z" fill="#50B848"/>
<path d="M43.1149 19.3224L43.6135 21.3397C43.6135 21.6549 43.6135 21.9701 43.6135 22.2538V0H7V22.0647C7.45543 19.456 8.23001 16.9148 9.30587 14.4996L10.303 12.766C11.7315 10.5884 13.5241 8.6791 15.6003 7.12374L17.2829 6.05203C18.7995 5.24685 20.4123 4.64296 22.0816 4.25533C23.1119 4.07738 24.153 3.97205 25.1977 3.94012C26.6158 3.97783 28.026 4.16803 29.4043 4.5075C30.3893 4.80987 31.3568 5.16767 32.3023 5.57921C34.3995 6.63663 36.3061 8.04315 37.9423 9.73998L39.2199 11.253C40.9787 13.6937 42.307 16.4237 43.1461 19.3224H43.1149Z" fill="#50B848"/>
<path d="M43.7383 65.1221L22.2999 91.7573H43.7383V65.1221Z" fill="#50B848"/>
<path d="M82.8147 0L9.12042 91.7575H17.2533L91.1034 0H82.8147Z" fill="#50B848"/>
<path d="M52.7436 85.4536H43.2397V91.7578H52.7436V85.4536Z" fill="#50B848"/>
<path d="M96.8665 85.4527V91.7569C98.939 91.9106 100.869 92.8827 102.239 94.4632C103.609 96.0438 104.309 98.1059 104.189 100.205C104.193 102.352 103.385 104.42 101.931 105.984C100.477 107.549 98.487 108.492 96.368 108.621C92.2649 108.379 88.2055 107.638 84.2777 106.414L46.7295 96.9579C26.0701 91.9776 7 97.7144 7 111.363H13.2321C13.2321 106.32 22.923 102.947 43.6446 108.211L81.7849 117.573C88.8577 119.759 96.4579 119.425 103.317 116.627V116.627C105.997 115.163 108.235 112.992 109.793 110.345C111.352 107.698 112.172 104.673 112.166 101.591C112.228 99.5034 111.88 97.4236 111.14 95.4731C110.401 93.5226 109.285 91.7403 107.859 90.2298C106.432 88.7193 104.723 87.5107 102.831 86.6744C100.938 85.838 98.9002 85.3906 96.8354 85.3582L96.8665 85.4527Z" fill="#50B848"/>
</svg>
